<svg xmlns="http://www.w3.org/2000/svg" viewBox="0 0 438.82 112.04">
  <g id="influencer-logo">
    <path id="map" fill="#00c5c2" d="M219.63,95.33a6.06,6.06,0,0,1-2.36.14c-3.88-1.45-6.76.23-9.48,2.73-1.29,1.18-2.64,2.37-4.43,2-.45.64-.72,1.43-1.26,1.72-2.08,1.15-2.7,3.24-3,5.21-.22,1.37.56,2.9,1,4.91-1.69-.37-3.18-.66-4.65-1-2.94-.75-4.32-2.83-4.8-5.69a3.64,3.64,0,0,0-.57-1.17c-1.16-2-2.24-4-3.52-5.84a13.19,13.19,0,0,0-3.13-3.53c-1.77-1.24-4-.46-5.08,1.48-.77,1.38-1.56,1.72-3.06.79A8.83,8.83,0,0,1,171,91.66c-.53-1.89-2.66-3.28-3.84-5-1.74-2.6-4.42-2.32-6.94-2.56a1.21,1.21,0,0,0-1,.57c-.35,1.38-1.32,1.14-2.27,1a49.65,49.65,0,0,1-5.3-.73,26.81,26.81,0,0,1-5.72-1.88A46.29,46.29,0,0,1,137,77.92c-2.62-2.14-5.49-2.19-8.49-2.49-1.36-.14-2-.65-1.94-2,.12-1.88-1-3.07-2.25-4.2s-2.42-2.39-3.75-3.44a25.47,25.47,0,0,0-2.81-1.53c-.47-.3-1.18-.94-1.1-1.27.66-2.8-1.47-4.76-2-7.17a28.36,28.36,0,0,1-.35-3.31c-.23-1.09-.44-2.49-.82-3.85-.44-1.6-1.06-3.15-1.52-4.75a8.77,8.77,0,0,1-.66-3.28,8,8,0,0,0-.4-4.82c-.22-.45.27-1.28.48-1.92.55-1.7,1.54-3.39,1.59-5.1a15.87,15.87,0,0,1,1.88-7c2.71-5.3,5-10.81,4.78-17,0-1.2-.13-2.4-.22-4a32.15,32.15,0,0,0,3.09,1.83c2.74,1.22,3.71.52,3.39-2.62.65.11,1.26.16,1.85.31A240.55,240.55,0,0,0,170,8.1c11.17.94,22.4,1.31,33.6,1.85A9.2,9.2,0,0,0,206.48,9V8.34a3.68,3.68,0,0,1,.75.87c.89,2,2.08,2.49,4.2,2.28a6.15,6.15,0,0,1,3.08,1c1.85,1,3.8.49,5.71.63a16.71,16.71,0,0,1,2.22.42l-6.6,5.58.33.46,3.14-1.28c.51,1.75,1.48,1.56,2.63.75,1.48-1.06,2.95-2.13,4.47-3.13a2.85,2.85,0,0,1,1.89-.37l-1.24,1.83a21.48,21.48,0,0,0,2.62,1.33,13.22,13.22,0,0,0,2.51.37c.11,0,.23-.11.33-.18,2.76-1.65,5.3-1.5,7.7.76.39.35,1.1.36,1.72,1-1.46.18-2.93.37-4.4.54a11.52,11.52,0,0,0-2.55.28,8.27,8.27,0,0,0-5.77,6.14l2.28-2.93a61,61,0,0,0-1.26,8.07,22.57,22.57,0,0,0,1.11,6.62c.44,1.53,1.67,1.58,2.63.16a6,6,0,0,0,.38-6.34c-1.13-2.29-.5-6.37,1.06-8.07.75-.82,1.28-1.83,2-2.71.26-.33.76-.86,1-.79,1.54.53,3.27.91,4.49,1.89s1,3.85.05,5.36c-.25.38-.53.75-.8,1.13l.4.4c.3-.24.6-.49.92-.72.58-.43,1.24-1.24,1.74-1.15s1,1,1.31,1.63a5.72,5.72,0,0,1,.8,2.34A7.91,7.91,0,0,1,246.7,35c-.38,1.23-.8,2.45-1.2,3.67,1.32.17,3,.93,3.88.39a74.15,74.15,0,0,0,8.53-6.54c.43-.37.06-1.68.06-3.1,1.06-.22,2.43-.52,3.8-.77a13.43,13.43,0,0,0,2.59-.41c1.73-.73,2.05-2.07,1.13-3.78.52-.91,1-1.8,1.53-2.67a5,5,0,0,1,3.45-2.61c2.44-.45,4.83-1.19,7.22-1.88,2-.58,3.65-3.41,3.77-5.59s.66-4.55,1-6.83l.55.31a8.31,8.31,0,0,1,2.46-.52,4.61,4.61,0,0,1,2.37,1c.41.34.51,1.14.65,1.76a8.36,8.36,0,0,0,3.62,5.24c1,.65,1.27,1.55.07,2.46a35.83,35.83,0,0,1-4,2.91c-.6.84-1,2-1.82,2.45-1.84,1.06-2.15,2.83-2.17,4.5,0,1.25-.3,2.92,1.18,3.81a25.49,25.49,0,0,0,2.38,1.08L286,32.12l-.44-.89-1.83.42c-.65,2.87-4.72,1.63-6,4.23L282,34.3l.29.67-6,3.42c1.92,2.57-.27,4.84-.93,7.35l-1.8-.88c3.11,3.24.93,6.15-.49,9.12a3.38,3.38,0,0,1-.17-1.18c.38-1.51-.27-2.31-1.38-3.34-.92-.85-1.08-2.51-1.83-3.75q.72,2.49,1.42,5c.33,1.15.62,2.31,1,3.45a3.24,3.24,0,0,0,.54,1,45.39,45.39,0,0,1,3.05,4c.72,1.2-.82,3.25-2.5,3.41a5,5,0,0,0,.14.67c.26.63.92,1.53.72,1.83-.38.54-1.28.7-1.94,1-.95.49-5.93,6.71-6.48,7.61a14.31,14.31,0,0,1-2.79,3.54c-3.1,2.58-4.54,7.18-2.91,10.78.91,2,2.25,3.83,3.3,5.78.79,1.49,1.19,3.25,2.2,4.55,2.52,3.26,2.61,6.88,2.11,10.66a1.29,1.29,0,0,1-.77.81,3.15,3.15,0,0,1-2.1-.07,28.22,28.22,0,0,1-3.09-2.69c-1.72-2-3.31-4.08-4.94-6.14-1.09-1.37-.92-2.93-.88-4.56,0-.84-.88-1.78-1.54-2.52a29.14,29.14,0,0,0-2.56-2.28c-1-.9-2-1.61-3.19-.14a3.43,3.43,0,0,1-1.58,1c-.6.19-1.62.38-1.87.08-2.28-2.74-5-2.49-8-1.47-.48.17-1,.3-1.56.48l-.65-1-6.31,1.79v.49c2.24.11.74,1.3.7,2a1.31,1.31,0,0,0,.21.36c.54.55-1.35.68-1.75.46l-.39,1.14a21.94,21.94,0,0,1-4.51-.08,11.22,11.22,0,0,1-3-1.73Z"/>
    <path id="the" fill="#ffffff" d="M5.68,71.28v-17H0V52.77H13.27v1.48H7.59v17Zm11.94,0V52.77h1.92V61h9.59V52.77h1.93V71.28H29.13V62.43H19.54v8.85Zm19.17,0V52.77H47.2v1.48H38.72V61h7.86v1.48H38.72V69.8h8.57v1.48Z"/>
    <path id="influencer" fill="#ffffff" d="M60.47,36.32h9V70.93h-9ZM76.4,70.93V36.32h8.82l11.65,20v-20h7.53V70.93H96.54L83.93,49.26V70.93Zm35-34.61H132V43H120.31v7.72H130.7v6.7H120.31V70.93h-8.92Zm26.44,0h8.92V64.23h12.56v6.7H137.83Zm39.64,28.3c3,0,5.18-1.57,5.18-6V36.32h8.13V57.81c0,8.87-5.22,13.81-13.77,13.81-8.31,0-13.77-4.48-13.77-13.81V36.32h8.92v22.3C172.17,63.26,174.47,64.62,177.47,64.62Zm20-28.3h21.1V43H206.38v6.79h11v6.7h-11v7.72h12.38v6.7H197.47Zm27.77,34.61V36.32h8.82l11.65,20v-20h7.53V70.93h-7.86L232.77,49.26V70.93Zm60.68-1.85c-2.49,1.66-6.05,2.4-9.75,2.4-9.47,0-17.51-5.68-17.51-17.46s7.86-18.21,17.56-18.21a21.4,21.4,0,0,1,9.38,1.71l-2.17,7a13.43,13.43,0,0,0-6-1.44c-5.91,0-9.7,3.89-9.7,10.82s4,10.25,9.2,10.25a13.42,13.42,0,0,0,6.69-1.75Zm4.63-32.76h21.12V43h-12.2v6.79h11v6.7h-11v7.72h12.38v6.7h-21.3Zm27.83,0h14.18c6.24,0,11.32,3.61,11.32,10.86a10.15,10.15,0,0,1-6.41,9.56l8,14.19H336l-7.3-13h-1.38v13H318.4ZM327.3,43v9.28h3.55c2.69,0,4.39-1.75,4.39-4.8S333.54,43,330.85,43Z"/>
    <path id="series" fill="#ffffff" d="M362.34,54a4.1,4.1,0,0,0-2.66.8,2.74,2.74,0,0,0-1,2.24,2.5,2.5,0,0,0,.92,2.06,13.89,13.89,0,0,0,3.08,1.69c.87.38,1.55.71,2.05,1a9.39,9.39,0,0,1,1.49,1,3.53,3.53,0,0,1,1.08,1.46,5.48,5.48,0,0,1,.32,2A5,5,0,0,1,366,70.17a6.26,6.26,0,0,1-4.29,1.43,9.86,9.86,0,0,1-5.48-1.43l.59-1.48a9.11,9.11,0,0,0,4.84,1.38,4.69,4.69,0,0,0,3-.91,3.34,3.34,0,0,0,1.12-2.75,3.6,3.6,0,0,0-.24-1.39,2.65,2.65,0,0,0-.86-1.07,8.44,8.44,0,0,0-1.28-.8c-.42-.21-1.06-.5-1.9-.86a11.2,11.2,0,0,1-3.52-2.15,4.59,4.59,0,0,1,.38-6.4,6,6,0,0,1,4-1.26,9.83,9.83,0,0,1,4.69,1L366.56,55A8.06,8.06,0,0,0,362.34,54Zm10,17.27V52.77h10.4v1.48H374.3V61h7.85v1.48H374.3V69.8h8.57v1.48Zm15.89,0V52.77h5.83a5.58,5.58,0,0,1,4,1.39A5,5,0,0,1,399.55,58a4.92,4.92,0,0,1-4.1,5.09l5.06,8.2h-2.07l-5-8.06h-3.26v8.06Zm5.51-17h-3.58v7.62h3.58a3.53,3.53,0,0,0,3.9-3.88,3.66,3.66,0,0,0-1-2.8A4.11,4.11,0,0,0,393.77,54.25Zm11.27,17V52.77h1.9V71.28Zm8,0V52.77h10.4v1.48H415V61h7.85v1.48H415V69.8h8.57v1.48ZM433.51,54a4.1,4.1,0,0,0-2.66.8,2.74,2.74,0,0,0-1,2.24,2.5,2.5,0,0,0,.92,2.06,13.89,13.89,0,0,0,3.08,1.69c.87.38,1.55.71,2.05,1a9.39,9.39,0,0,1,1.49,1,3.53,3.53,0,0,1,1.08,1.46,5.48,5.48,0,0,1,.32,2,5,5,0,0,1-1.62,3.93,6.26,6.26,0,0,1-4.29,1.43,9.86,9.86,0,0,1-5.48-1.43l.59-1.48a9.11,9.11,0,0,0,4.84,1.38,4.69,4.69,0,0,0,3-.91A3.34,3.34,0,0,0,437,66.41a3.6,3.6,0,0,0-.24-1.39,2.65,2.65,0,0,0-.86-1.07,8.44,8.44,0,0,0-1.28-.8c-.42-.21-1.06-.5-1.9-.86a11.2,11.2,0,0,1-3.52-2.15,4.59,4.59,0,0,1,.38-6.4,6,6,0,0,1,4-1.26,9.83,9.83,0,0,1,4.69,1L437.73,55A8.06,8.06,0,0,0,433.51,54Z"/>
  </g>
</svg>
