<svg xmlns="http://www.w3.org/2000/svg" viewBox="0 0 438.82 112.04">
  <g id="influencer-logo">
    <path id="the" fill="#ffffff" d="M5.68,71.28v-17H0V52.77H13.27v1.48H7.59v17Zm11.94,0V52.77h1.92V61h9.59V52.77h1.93V71.28H29.13V62.43H19.54v8.85Zm19.17,0V52.77H47.2v1.48H38.72V61h7.86v1.48H38.72V69.8h8.57v1.48Z"/>
    <path id="influencer" fill="#ffffff" d="M60.47,36.32h9V70.93h-9ZM76.4,70.93V36.32h8.82l11.65,20v-20h7.53V70.93H96.54L83.93,49.26V70.93Zm35-34.61H132V43H120.31v7.72H130.7v6.7H120.31V70.93h-8.92Zm26.44,0h8.92V64.23h12.56v6.7H137.83Zm39.64,28.3c3,0,5.18-1.57,5.18-6V36.32h8.13V57.81c0,8.87-5.22,13.81-13.77,13.81-8.31,0-13.77-4.48-13.77-13.81V36.32h8.92v22.3C172.17,63.26,174.47,64.62,177.47,64.62Zm20-28.3h21.1V43H206.38v6.79h11v6.7h-11v7.72h12.38v6.7H197.47Zm27.77,34.61V36.32h8.82l11.65,20v-20h7.53V70.93h-7.86L232.77,49.26V70.93Zm60.68-1.85c-2.49,1.66-6.05,2.4-9.75,2.4-9.47,0-17.51-5.68-17.51-17.46s7.86-18.21,17.56-18.21a21.4,21.4,0,0,1,9.38,1.71l-2.17,7a13.43,13.43,0,0,0-6-1.44c-5.91,0-9.7,3.89-9.7,10.82s4,10.25,9.2,10.25a13.42,13.42,0,0,0,6.69-1.75Zm4.63-32.76h21.12V43h-12.2v6.79h11v6.7h-11v7.72h12.38v6.7h-21.3Zm27.83,0h14.18c6.24,0,11.32,3.61,11.32,10.86a10.15,10.15,0,0,1-6.41,9.56l8,14.19H336l-7.3-13h-1.38v13H318.4ZM327.3,43v9.28h3.55c2.69,0,4.39-1.75,4.39-4.8S333.54,43,330.85,43Z"/>
    <path id="series" fill="#ffffff" d="M362.34,54a4.1,4.1,0,0,0-2.66.8,2.74,2.74,0,0,0-1,2.24,2.5,2.5,0,0,0,.92,2.06,13.89,13.89,0,0,0,3.08,1.69c.87.38,1.55.71,2.05,1a9.39,9.39,0,0,1,1.49,1,3.53,3.53,0,0,1,1.08,1.46,5.48,5.48,0,0,1,.32,2A5,5,0,0,1,366,70.17a6.26,6.26,0,0,1-4.29,1.43,9.86,9.86,0,0,1-5.48-1.43l.59-1.48a9.11,9.11,0,0,0,4.84,1.38,4.69,4.69,0,0,0,3-.91,3.34,3.34,0,0,0,1.12-2.75,3.6,3.6,0,0,0-.24-1.39,2.65,2.65,0,0,0-.86-1.07,8.44,8.44,0,0,0-1.28-.8c-.42-.21-1.06-.5-1.9-.86a11.2,11.2,0,0,1-3.52-2.15,4.59,4.59,0,0,1,.38-6.4,6,6,0,0,1,4-1.26,9.83,9.83,0,0,1,4.69,1L366.56,55A8.06,8.06,0,0,0,362.34,54Zm10,17.27V52.77h10.4v1.48H374.3V61h7.85v1.48H374.3V69.8h8.57v1.48Zm15.89,0V52.77h5.83a5.58,5.58,0,0,1,4,1.39A5,5,0,0,1,399.55,58a4.92,4.92,0,0,1-4.1,5.09l5.06,8.2h-2.07l-5-8.06h-3.26v8.06Zm5.51-17h-3.58v7.62h3.58a3.53,3.53,0,0,0,3.9-3.88,3.66,3.66,0,0,0-1-2.8A4.11,4.11,0,0,0,393.77,54.25Zm11.27,17V52.77h1.9V71.28Zm8,0V52.77h10.4v1.48H415V61h7.85v1.48H415V69.8h8.57v1.48ZM433.51,54a4.1,4.1,0,0,0-2.66.8,2.74,2.74,0,0,0-1,2.24,2.5,2.5,0,0,0,.92,2.06,13.89,13.89,0,0,0,3.08,1.69c.87.38,1.55.71,2.05,1a9.39,9.39,0,0,1,1.49,1,3.53,3.53,0,0,1,1.08,1.46,5.48,5.48,0,0,1,.32,2,5,5,0,0,1-1.62,3.93,6.26,6.26,0,0,1-4.29,1.43,9.86,9.86,0,0,1-5.48-1.43l.59-1.48a9.11,9.11,0,0,0,4.84,1.38,4.69,4.69,0,0,0,3-.91A3.34,3.34,0,0,0,437,66.41a3.6,3.6,0,0,0-.24-1.39,2.65,2.65,0,0,0-.86-1.07,8.44,8.44,0,0,0-1.28-.8c-.42-.21-1.06-.5-1.9-.86a11.2,11.2,0,0,1-3.52-2.15,4.59,4.59,0,0,1,.38-6.4,6,6,0,0,1,4-1.26,9.83,9.83,0,0,1,4.69,1L437.73,55A8.06,8.06,0,0,0,433.51,54Z"/>
  </g>
</svg>
