<svg xmlns="http://www.w3.org/2000/svg" viewBox="0 0 250.1 20.4">
  <title>The Influencer Series</title>
  <path d="M3.2,10.6H0V9.7H7.6v.9H4.3v9.7H3.2Zm6.9-.9h1.1v4.6h5.5V9.7h1.1V20.2H16.7v-5H11.2v5H10.1ZM21,9.7h6v.9H22.1v3.8h4.5v.8H22.1v4.2H27v.9H21Zm185.5.7c-1.3,0-2.1.6-2.1,1.7s.9,1.6,2.3,2.2,2.8,1.3,2.8,3.1-1.4,3-3.4,3a4.8,4.8,0,0,1-3.1-.8l.3-.8a5.7,5.7,0,0,0,2.8.8c1.4,0,2.4-.7,2.4-2.1s-.8-1.7-2.5-2.4-2.6-1.4-2.6-3,1.2-2.5,3.1-2.5a5.2,5.2,0,0,1,2.7.5l-.3.9A5.3,5.3,0,0,0,206.5,10.4Zm5.7-.7h5.9v.9h-4.8v3.8h4.5v.8h-4.5v4.2h4.9v.9h-6Zm9.1,0h3.3a2.9,2.9,0,0,1,2.9,3.1,3,3,0,0,1-2.1,2.8l2.9,4.6h-1.2l-2.8-4.6h-1.9v4.6h-1.1Zm1.1.8v4.4h2a2,2,0,0,0,2.2-1.8v-.4a2,2,0,0,0-1.9-2.2h-2.3Zm8.5-.8H232V20.2h-1.1Zm4.5,0h5.9v.9h-4.8v3.8H241v.8h-4.5v4.2h4.9v.9h-6Zm11.6.7c-1.2,0-2,.6-2,1.7s.8,1.6,2.2,2.2,2.9,1.3,2.9,3.1-1.4,3-3.4,3a4.8,4.8,0,0,1-3.1-.8l.3-.8a4.5,4.5,0,0,0,2.8.7c1.4,0,2.3-.6,2.3-2s-.8-1.7-2.4-2.4-2.7-1.4-2.7-3,1.3-2.5,3.2-2.5a5.2,5.2,0,0,1,2.7.5l-.3.9A4.4,4.4,0,0,0,247,10.4ZM34.5.3h5.1V20H34.5Zm9,19.7V.3h5l6.7,11.4V.3h4.3V20H55L47.8,7.7V20ZM63.5.3H75.2V4.1H68.6V8.6h5.9v3.8H68.6v7.7H63.5Zm15,0h5.1V16.2h7.2V20H78.5Zm22.6,16.1c1.7,0,3-.9,3-3.4V.3h4.6V12.6c0,5-3,7.8-7.8,7.8S93,17.9,93,12.6V.3h5.1V13C98.1,15.7,99.4,16.4,101.1,16.4ZM112.5.3h12V4.1h-6.9V8h6.3v3.8h-6.3v4.4h7.1V20H112.5ZM128.3,20V.3h5L140,11.7V.3h4.3V20h-4.5L132.6,7.7V20Zm34.6-1a10.6,10.6,0,0,1-5.5,1.3c-5.4,0-10-3.2-10-9.9S151.8,0,157.4,0a12.2,12.2,0,0,1,5.3,1l-1.2,4a8.1,8.1,0,0,0-3.4-.8c-3.4,0-5.5,2.2-5.5,6.2s2.2,5.8,5.2,5.8a7.5,7.5,0,0,0,3.8-1ZM165.6.3h12V4.1h-7V8h6.3v3.8h-6.3v4.4h7.1V20H165.6Zm15.8,0h8.1c3.6,0,6.5,2,6.5,6.2a5.6,5.6,0,0,1-3.7,5.4l4.5,8.1h-5.3l-4.2-7.4h-.8V20h-5.1Zm5.1,3.8V9.4h2A2.4,2.4,0,0,0,191,7.1V6.7a2.3,2.3,0,0,0-2-2.6h-2.5Z"/>
</svg>
