<svg xmlns="http://www.w3.org/2000/svg" viewBox="0 0 438.8 112.1">
  <title>influencer-logo-east</title>
  <g>
    <path d="M147.4-.2c4.3.1,8.5.5,12.7.3s8,.2,12,.4,10.7.1,16,.1c.7.1,1.6,0,1.8.7s.8,3.9,2.5,4.9l43.1,2.6c.1,1.3.3,2.6.5,3.9h2.4c.1-1.2.3-2.5.4-3.8s-.6-1.9-.5-2.9a2.1,2.1,0,0,1,1-1.8c.8-.6,1.7-.1,2.5.2A31.4,31.4,0,0,0,248.4,6a24.8,24.8,0,0,0,.3,4.7c.8,3.6,1.3,7.4,2.5,10.9s2.8,7.7,4.4,11.6,3.1,5.3,4.5,7.9a47.3,47.3,0,0,0,3.1,4.3c.5,1,.7,2,1.1,3s-.9.3-1,.8c-.6,2.8.3,5.6,1.5,8.2a54.4,54.4,0,0,1,3,6.5c1.5,5.1,4.4,9.7,5.6,14.9.7,6.8-1.2,13.6-.7,20.5l-2,.5a22.6,22.6,0,0,1-1.5,3.9,8.2,8.2,0,0,0,.1,2.7h.6c-.9,1.4-2.3,2.4-3.2,3.7l-1.8-1c.1.4.1.8.2,1.2l-2.3,1c-.9-.2-1.9-.8-2.9-.4a8.3,8.3,0,0,1-3.4,1,2.3,2.3,0,0,1-1.3-1.7c-.4-1.2.3-2.4,0-3.5s-1.4-4-2.8-5.5a3.4,3.4,0,0,1-.9-2.7,13.6,13.6,0,0,0-2.8-1.1,19.5,19.5,0,0,0-3.4.3c-.6-1.9-1.6-3.7-1.8-5.7s-.4-3.3-1.7-4.4a6.6,6.6,0,0,0-3.1-2.1l1.2,1.5c-.6.3-1.4.7-2.1.2s-1.3-2.5-1.8-3.7-.1-3-1.1-4.2a28.8,28.8,0,0,1-3.4-6.5c-1.2-2.4-3.4-4-4.4-6.5l1.9.5a30.5,30.5,0,0,0,1.9-3c.5-1.1,1.6-1.7,2.3-2.6a10.9,10.9,0,0,0-.1-1.8h-1.5c.1.6.1,1.2.2,1.8l-1.8-.7a1.3,1.3,0,0,0-.1.6c-.6,1-1,2.2-2.2,2.6L228,65h-.6a19.3,19.3,0,0,1-.1-2.4,6.7,6.7,0,0,1-1.7-2c-.3-1.5.1-3,.2-4.6l.5,1c0-1.1-.2-2.3.4-3.3s.8-2.6,1.4-3.9.3-3.3.5-4.9.5-3.1-.4-4.5L226,37.2a4.2,4.2,0,0,0-.4-1.5c-1.1-.4-2.5-.6-3.4.4h-.4c-.1-1.3-.5-2.7-1.8-3.2a15.5,15.5,0,0,0-.8-2.3c-.7-.2-1.5-.2-2-.8s-1.1-2.3-1.5-3.5-1.7-1.2-2.4-2-.7-1.9-1.4-2.6-2.5-1.5-3.6-2.3-1.7-1.5-2.9-1.5-3.5.5-5.3.6c.2,1.1.4,2.2.5,3.2s-2.8-.7-4,.1L191.2,25c0-.4-.1-.8-.1-1.2L189.8,25a22.6,22.6,0,0,1-2.6,0,10.6,10.6,0,0,1,1.6,2.1c2.3-.4,4.1-2.1,6.2-3a12.7,12.7,0,0,1-6,3.3c-1.3-.4-2.4-1.5-3.9-1.7a5.8,5.8,0,0,0-1.6.5,18.7,18.7,0,0,1-.9-4.1h1.2a6.7,6.7,0,0,0-.9-1.4L181,20c-.6-.5-.9-1.2-1.6-1.6-2.7-1.5-5-3.9-8.1-4.9s-6.4-1.6-9.7-1.7-6.2,1.1-9.3,1.2a12.5,12.5,0,0,0-4.2.8c.5-.9,1.2-1.7,1.7-2.6l.9-.2a13.7,13.7,0,0,1-1.3-2,5.7,5.7,0,0,0,1.1-2.8,6.8,6.8,0,0,1-3.6-3.5,25,25,0,0,1,.5-2.9Z" fill="#0be6af"/>
    <path d="M5.7,71.3v-17H0V52.8H13.3v1.4H7.6v17Zm11.9,0V52.8h1.9V61h9.6V52.8h2V71.3h-2V62.4H19.5v8.9Zm19.2,0V52.8H47.2v1.4H38.7V61h7.9v1.5H38.7v7.3h8.6v1.5Z" transform="translate(0 0.2)" fill="#333"/>
    <path d="M60.5,36.3h9V70.9h-9ZM76.4,70.9V36.3h8.8l11.7,20v-20h7.5V70.9H96.5L83.9,49.3V70.9Zm35-34.6H132V43H120.3v7.7h10.4v6.7H120.3V70.9h-8.9Zm26.4,0h9V64.2h12.5v6.7H137.8Zm39.7,28.3c3,0,5.2-1.6,5.2-6V36.3h8.1V57.8c0,8.9-5.2,13.8-13.8,13.8s-13.8-4.5-13.8-13.8V36.3h9V58.6c0,4.7,2.3,6,5.3,6Zm20-28.3h21.1V43H206.4v6.8h11v6.7h-11v7.7h12.4v6.7H197.5Zm27.7,34.6V36.3h8.9l11.6,20v-20h7.5V70.9h-7.8L232.8,49.3V70.9Zm60.7-1.8a18.4,18.4,0,0,1-9.7,2.4c-9.5,0-17.5-5.7-17.5-17.5s7.8-18.2,17.5-18.2a23.1,23.1,0,0,1,9.4,1.7l-2.2,7a13.6,13.6,0,0,0-6-1.4c-5.9,0-9.7,3.9-9.7,10.8s4,10.2,9.2,10.2a12,12,0,0,0,6.7-1.7Zm4.7-32.8h21.1V43H299.5v6.8h11v6.7h-11v7.7h12.4v6.7H290.6Zm27.8,0h14.2c6.2,0,11.3,3.6,11.3,10.9a10.1,10.1,0,0,1-6.4,9.5l8,14.2H336l-7.3-13h-1.4v13h-8.9Zm8.9,6.7v9.3h3.5c2.7,0,4.4-1.8,4.4-4.8s-1.7-4.5-4.3-4.5Z" transform="translate(0 0.2)" fill="#333"/>
    <path d="M362.3,54a3.5,3.5,0,0,0-2.6.8,2.9,2.9,0,0,0-.1,4.3,13.4,13.4,0,0,0,3.1,1.7l2,1a5.6,5.6,0,0,1,1.5,1,3.6,3.6,0,0,1,1.1,1.4,7.5,7.5,0,0,1,.3,2,5,5,0,0,1-1.6,4,6,6,0,0,1-4.3,1.4,9.8,9.8,0,0,1-5.5-1.4l.6-1.5a9.3,9.3,0,0,0,4.9,1.4,5.5,5.5,0,0,0,3-.9,3.9,3.9,0,0,0,.8-4.2,2.1,2.1,0,0,0-.8-1.1l-1.3-.8-1.9-.8a9.9,9.9,0,0,1-3.5-2.2,4.5,4.5,0,0,1,.4-6.4,6.1,6.1,0,0,1,4-1.2,9.7,9.7,0,0,1,4.7,1l-.5,1.5A8,8,0,0,0,362.3,54Zm10,17.3V52.8h10.4v1.4h-8.4V61h7.8v1.5h-7.8v7.3h8.6v1.5Zm15.9,0V52.8h5.9a5.5,5.5,0,0,1,4,1.4,4.9,4.9,0,0,1,1.4,3.8,4.8,4.8,0,0,1-4.1,5.1l5.1,8.2h-2.1l-5-8.1h-3.2v8.1Zm5.5-17h-3.5v7.6h3.5a3.5,3.5,0,0,0,3.9-3.1,1.1,1.1,0,0,0,0-.8,3.4,3.4,0,0,0-1-2.8,4.2,4.2,0,0,0-2.8-1Zm11.3,17V52.8h1.9V71.3Zm8,0V52.8h10.4v1.4H415V61h7.9v1.5H415v7.3h8.6v1.5ZM433.5,54a3.5,3.5,0,0,0-2.6.8,2.9,2.9,0,0,0-.1,4.3,11.7,11.7,0,0,0,3.1,1.7l2,1,1.5,1a4.9,4.9,0,0,1,1.1,1.4,7.5,7.5,0,0,1,.3,2,5,5,0,0,1-1.6,4,6.2,6.2,0,0,1-4.3,1.4,9.6,9.6,0,0,1-5.5-1.4l.6-1.5a9,9,0,0,0,4.8,1.4,5.1,5.1,0,0,0,3-.9,3.3,3.3,0,0,0,1.2-2.8,6.8,6.8,0,0,0-.2-1.4,2.2,2.2,0,0,0-.9-1,3.5,3.5,0,0,0-1.3-.8,11.6,11.6,0,0,0-1.9-.9,9.9,9.9,0,0,1-3.5-2.2,4.6,4.6,0,0,1,.4-6.4,6.1,6.1,0,0,1,4-1.2,9.7,9.7,0,0,1,4.7,1l-.6,1.5A7.7,7.7,0,0,0,433.5,54Z" fill="#333"/>
  </g>
</svg>
