<svg xmlns="http://www.w3.org/2000/svg" viewBox="0 0 344.8 112.1">
  <title>el-nuevo-reversed</title>
  <g>
    <path d="M147.4-.2c4.3.1,8.5.5,12.7.3s8,.2,12,.4,10.7.1,16,.1c.7.1,1.6,0,1.8.7s.8,3.9,2.5,4.9l43.1,2.6c.1,1.3.3,2.6.5,3.9h2.4c.1-1.2.3-2.5.4-3.8s-.6-1.9-.5-2.9a2.1,2.1,0,0,1,1-1.8c.8-.6,1.7-.1,2.5.2A31.4,31.4,0,0,0,248.4,6a24.8,24.8,0,0,0,.3,4.7c.8,3.6,1.3,7.4,2.5,10.9s2.8,7.7,4.4,11.6,3.1,5.3,4.5,7.9a47.3,47.3,0,0,0,3.1,4.3c.5,1,.7,2,1.1,3s-.9.3-1,.8c-.6,2.8.3,5.6,1.5,8.2a54.4,54.4,0,0,1,3,6.5c1.5,5.1,4.4,9.7,5.6,14.9.7,6.8-1.2,13.6-.7,20.5l-2,.5a22.6,22.6,0,0,1-1.5,3.9,8.2,8.2,0,0,0,.1,2.7h.6c-.9,1.4-2.3,2.4-3.2,3.7l-1.8-1c.1.4.1.8.2,1.2l-2.3,1c-.9-.2-1.9-.8-2.9-.4a8.3,8.3,0,0,1-3.4,1,2.3,2.3,0,0,1-1.3-1.7c-.4-1.2.3-2.4,0-3.5s-1.4-4-2.8-5.5a3.4,3.4,0,0,1-.9-2.7,13.6,13.6,0,0,0-2.8-1.1,19.5,19.5,0,0,0-3.4.3c-.6-1.9-1.6-3.7-1.8-5.7s-.4-3.3-1.7-4.4a6.6,6.6,0,0,0-3.1-2.1l1.2,1.5c-.6.3-1.4.7-2.1.2s-1.3-2.5-1.8-3.7-.1-3-1.1-4.2a28.8,28.8,0,0,1-3.4-6.5c-1.2-2.4-3.4-4-4.4-6.5l1.9.5a30.5,30.5,0,0,0,1.9-3c.5-1.1,1.6-1.7,2.3-2.6a10.9,10.9,0,0,0-.1-1.8h-1.5c.1.6.1,1.2.2,1.8l-1.8-.7a1.3,1.3,0,0,0-.1.6c-.6,1-1,2.2-2.2,2.6L228,65h-.6a19.3,19.3,0,0,1-.1-2.4,6.7,6.7,0,0,1-1.7-2c-.3-1.5.1-3,.2-4.6l.5,1c0-1.1-.2-2.3.4-3.3s.8-2.6,1.4-3.9.3-3.3.5-4.9.5-3.1-.4-4.5L226,37.2a4.2,4.2,0,0,0-.4-1.5c-1.1-.4-2.5-.6-3.4.4h-.4c-.1-1.3-.5-2.7-1.8-3.2a15.5,15.5,0,0,0-.8-2.3c-.7-.2-1.5-.2-2-.8s-1.1-2.3-1.5-3.5-1.7-1.2-2.4-2-.7-1.9-1.4-2.6-2.5-1.5-3.6-2.3-1.7-1.5-2.9-1.5-3.5.5-5.3.6c.2,1.1.4,2.2.5,3.2s-2.8-.7-4,.1L191.2,25c0-.4-.1-.8-.1-1.2L189.8,25a22.6,22.6,0,0,1-2.6,0,10.6,10.6,0,0,1,1.6,2.1c2.3-.4,4.1-2.1,6.2-3a12.7,12.7,0,0,1-6,3.3c-1.3-.4-2.4-1.5-3.9-1.7a5.8,5.8,0,0,0-1.6.5,18.7,18.7,0,0,1-.9-4.1h1.2a6.7,6.7,0,0,0-.9-1.4L181,20c-.6-.5-.9-1.2-1.6-1.6-2.7-1.5-5-3.9-8.1-4.9s-6.4-1.6-9.7-1.7-6.2,1.1-9.3,1.2a12.5,12.5,0,0,0-4.2.8c.5-.9,1.2-1.7,1.7-2.6l.9-.2a13.7,13.7,0,0,1-1.3-2,5.7,5.7,0,0,0,1.1-2.8,6.8,6.8,0,0,1-3.6-3.5,25,25,0,0,1,.5-2.9Z" transform="translate(-43.8 0.2)" fill="#0be6af"/>
    <path d="M98.6,76.9V43.4h8.6V76.9Zm21.9,0h-7.3V43.4h8.5L133,62.7V43.4h7.3V76.9h-7.6l-12.2-21Zm25.8,0V43.4h20v6.5H154.9v7.5H165v6.5H154.9v13Zm24.8,0V43.4h8.6v27h11.5v6.5Zm33.3-33.5V65c0,3.9,1.7,5.8,5.2,5.8s5-1.9,5-5.8V43.4h7.9V64.2q0,6.5-3.6,9.9c-2.3,2.4-5.6,3.5-9.8,3.5s-7.4-1.1-9.8-3.4-3.5-5.6-3.5-10V43.4Zm30.4,33.5V63.5l-10-20.1h9l5.8,12.1,5.8-12.1H253l-9.6,19.5v14Zm20.9,0V43.4h20.5v6.5H264.3v6.6H275V63H264.3v7.4h12v6.5Zm33.4,0h-7.3V43.4h8.5l11.3,19.3V43.4h7.3V76.9h-7.6l-12.2-21Zm31.8,0v-27h-8.5V43.4h25.7v6.5h-8.5v27Zm20.7,0V43.4h20.5v6.5H350.2v6.6H361V63H350.2v7.4h12.1v6.5ZM378,49.8c-2.6,0-3.9.8-3.9,2.6a1.7,1.7,0,0,0,.4,1.1,3.5,3.5,0,0,0,1.1.9l1.6.7,2,.8,1.9.8a14.7,14.7,0,0,1,5.4,3.7,8.7,8.7,0,0,1,2.1,6.1q0,5.3-3.3,8.1c-2.3,2-5.3,2.9-9.2,2.9s-7.9-.9-10.7-2.9l2.3-6.8a14.4,14.4,0,0,0,8.2,2.6c3.1,0,4.7-.9,4.7-2.7a2.9,2.9,0,0,0-.3-1.4,2.6,2.6,0,0,0-1-1.1l-1.3-.8-1.9-.8-2-.8c-5.2-2.2-7.7-5.4-7.7-9.6a9.9,9.9,0,0,1,3-7.6c2.1-1.8,5-2.8,8.8-2.8a17.8,17.8,0,0,1,9.4,2.4l-2,6.6A13.7,13.7,0,0,0,378,49.8ZM43.8,75.6V58h1.8V74.2h8v1.4ZM74,66.9a10,10,0,0,1-1.2,5A7.7,7.7,0,0,1,69.7,75a7.9,7.9,0,0,1-4,1,8.7,8.7,0,0,1-3.2-.6,9.5,9.5,0,0,1-2.7-1.7A7.6,7.6,0,0,1,58,70.8a9.4,9.4,0,0,1-.7-3.9,9,9,0,0,1,2.5-6.7,7.8,7.8,0,0,1,5.9-2.5,8.5,8.5,0,0,1,3.1.6,8,8,0,0,1,2.7,1.8A6.5,6.5,0,0,1,73.3,63,10,10,0,0,1,74,66.9Zm-14.8,0a7.2,7.2,0,0,0,1.9,5.6,5.9,5.9,0,0,0,4.6,2.1,6,6,0,0,0,4.6-2.1,8.1,8.1,0,0,0,1.9-5.6,8.5,8.5,0,0,0-1.9-5.7,6,6,0,0,0-4.6-2.1,5.9,5.9,0,0,0-4.6,2.1A8,8,0,0,0,59.2,66.9Zm23.6-7.7a4.2,4.2,0,0,0-2.6.8,2.6,2.6,0,0,0-.9,2.1,2.5,2.5,0,0,0,.9,2,21.9,21.9,0,0,0,2.9,1.6l2,.9,1.4,1a2.8,2.8,0,0,1,1,1.4,4.8,4.8,0,0,1,.3,1.8,4.9,4.9,0,0,1-1.5,3.8,6.1,6.1,0,0,1-4.1,1.3A9.3,9.3,0,0,1,77,74.6l.5-1.4a9.7,9.7,0,0,0,4.6,1.3,4.2,4.2,0,0,0,2.9-.9A3.2,3.2,0,0,0,86.1,71a4.4,4.4,0,0,0-.2-1.3,2.5,2.5,0,0,0-.8-1l-1.3-.8L82,67.1A9.9,9.9,0,0,1,78.7,65a4,4,0,0,1-1.1-2.9A4.2,4.2,0,0,1,79,58.9a6,6,0,0,1,3.8-1.2,10,10,0,0,1,4.5,1l-.5,1.4A7.9,7.9,0,0,0,82.8,59.2Z" transform="translate(-43.8 0.2)" fill="#fff"/>
  </g>
</svg>
