<svg xmlns="http://www.w3.org/2000/svg" viewBox="0 0 438.8 110.9">
  <title>influencer-logo-midwest</title>
  <g>
    <path d="M228.6,12.1h0v-.6a1.3,1.3,0,0,0,.1-.6v-.3a.9.9,0,0,0,.1-.5V9.6h.1V9.1a.4.4,0,0,1,.1-.3V8.5c0-.1.1-.2.1-.3s.1-.4.1-.6h.1V7.1h.1V6.4c0-.1.1-.2.1-.3l-.3-.3V5.6h-.2c-.1-.1-.1-.1-.1-.2s-.1-.1-.2-.2l-.3-.3h-.2c0-.1-.1-.2-.1-.4s-.2-.3-.4-.4h-.2l-.3-.2c-.2-.1-.2-.2-.3-.4s-.2-.2-.2-.3-.1-.1-.1-.2-.1-.3-.2-.4-.1-.1-.2-.2-.1-.2-.2-.3h-.2l-.3-.2h0c0-.1-.1-.1-.1-.2V.9a.3.3,0,0,1-.1-.2l-.2-.2h-.2c-22.1.4-59.3.5-73.5.2V1c.1.1.1.2.1.4l.2.3c0,.2,0,.3.2.4l.3.2c.2.1.3,0,.4-.2s-.1-.7.2-.7.2.1.3.2.3.1.4.3.2.6,0,.7-.5.3-.6.6a1.2,1.2,0,0,0,.1,1,.8.8,0,0,0,.2.5l.2.3v.3l.3.4a.3.3,0,0,1,.1.2v.2h0a2.5,2.5,0,0,1-.1.8v.3c0,.2.2.3.4.3h.4c.2,0,.2.1.3.3v.3c.1,0,.1.1.1.2l.5.4c.3.2.6.2.9.5s.3.2.3.4v.4a.9.9,0,0,0,.1.5l.4.3.2.3v.5h0c.1.3.4.4.6.6s.2.2,0,.3h-.1v.2c0,.5-.1,1.1.4,1.5h.7l.4.2v.2l.2.2.2.3.2.2.2.3.4.3c0,.1.1.1.1.2h.2c.1.2.2.2.4.3s.2.2.3.3.1.2.3.3.3,0,.4.2a.4.4,0,0,1,.4.4c.1.1.1.1.1.2l.2.2h.8l.3.2c.1,0,.3.1.4,0s.2-.4.4-.4h.5l.3-.2h.5l.2.2v.5a.9.9,0,0,0,.1.5c.2.1.5,0,.7,0s.1.4.1.6a.6.6,0,0,1-.1.4l-.3.2h-.2c0,.1-.1.1-.1.2s-.1.2-.1.3h.6c.2,0,.2.5.1.6s-.4.3-.6.2h-.7c-.1.2-.3.2-.4.4v.4c0,.1-.1.3-.1.4s.1.3-.2.3h-.3l-.5.4c-.1.1-.1.3-.2.5v.5c0,.2,0,.3-.2.4l-.4.2-.4.3c-.1.1-.1.3-.2.5s0,.4.1.5l.4.3.4.4a.9.9,0,0,1,.3.7.4.4,0,0,1,.1.3.4.4,0,0,1,.1.3c.1.2.4.2.6.2l.4.4v.6c.1.1.3,0,.3.2s.1.2.4.2h.3l.4-.2c.2,0,.3,0,.3.2a.4.4,0,0,1,.1.3c-.1.2-.3.3-.4.4v.5l.4.7.3.3.4.3c.6.3.5,1.1.4,1.7h.4a.2.2,0,0,0,.2.2.4.4,0,0,0,.1.3c0,.1,0,.2.2.2h.4c.2,0,.1.2.2.3h.3l.6-.2c.1,0,.2-.1.3,0l.2.3c0,.1.2.2.3.2h.2a.5.5,0,0,1,.1.6l-.7,63c12.2,1,58.8.2,84.8-.4a.5.5,0,0,0,.4.2l.4-.2h.6v.6a1.3,1.3,0,0,1,0,1v.2c0,.1.1.2.1.3l.3.4c.1.1.2.3.4.3s.3,0,.4.2a.3.3,0,0,0-.1.2l-.2.4c-.1.1-.1.2-.1.4s.1.3.1.5a.6.6,0,0,1-.1.4c0,.2-.2.3-.3.4s-.1.1-.1.2a.4.4,0,0,0-.1.3.6.6,0,0,0-.1.4v.3h-.1l-.2.3c-.1.2-.4.3-.6.5l-.2.4h-.1l-.3.2a1,1,0,0,0-.5.6.6.6,0,0,0-.1.4c0,.1-.1.1-.1.2a.1.1,0,0,1-.1.1c0,.2-.2.2-.3.3l-.4.3a2,2,0,0,0-.4.8c0,.1-.1.2-.1.3l-.2.4a1.7,1.7,0,0,0-.1.7l.3.2.2-.2h.2l11.3-.3h0l.3-.4.3-.4a.8.8,0,0,1,.2-.4v-.4h0v-.9l.3-.4.5-.2.3-.3c0-.1.1-.1.1-.2V107a1.5,1.5,0,0,0-.5-.6l-.2-.2a.5.5,0,0,0-.4-.2l-.2-.2h-.2c-.1-.1-.2-.1-.2-.2l-.2-.2-.2-.2c-.1-.1-.2-.2-.1-.3h0c.1-.1.1-.1.1-.2h2l.4-.2h1v-.3c-.1,0-.1-.1-.2-.2h-.4l-.3-.2h-.3c0-.1-.1-.2,0-.3l.2-.2h.6l.3-.2h.2c0-.2,0-.5-.2-.6l-.4-.5h-.3c-.1-.1-.1-.1-.1-.2V100l.2-.3.2-.2h.1a.9.9,0,0,0,.1-.5c-.1-.2-.1-.4-.2-.5l-.2-.3v-.2h0a.3.3,0,0,1,.1-.2l.3-.3h.8l.2.2h.1c0,.1.1.1.1.2v1.2h.4c0,.1.1,0,.2-.1h.1v-.2l.2-.2.2-.3c.1-.2.2-.3.2-.5a.5.5,0,0,0,.2-.4c-.1,0-.1-.2,0-.3v-.5c0-.1,0-.1.1-.2s-.1-.3,0-.5l.2-.4a.3.3,0,0,1,.3-.3h.9v.2c.2.2.2.6.5.8h.7l.4-.2.3-.2V94.9l.3-.3c0-.1.1-.2.1-.3h.1V94c-.1-.1-.1-.1-.1-.2h0c0-.2-.1-.3-.1-.4l-.2-.2V93c.1,0,0-.1.1-.2l.2-.3.3-.2a.4.4,0,0,0,.1-.3v-.3a.3.3,0,0,0-.1-.2h-.1c-.1,0-.1,0-.1-.1l-.3-.2-.2-.3v-.3a.8.8,0,0,1,.2-.5l.4-.5v-.2h0v-.9h0V88a1857281232652.4,1857281232652.4,0,0,1,.2-.6v-.2a.4.4,0,0,0-.2-.6c-.2-.2-.4-.1-.6-.1h-.6c-.2-.1-.3-.4-.4-.5l-.2-.3c0-.1-.1-.1-.1-.2h-.1c0-.1,0-.1-.1-.2h0c-.1-.1-.2-.2-.2-.3h0l-.3-.5H273c-.1-.1-.2,0-.2-.1h-.5c-.1,0-.1.2-.1.3a.3.3,0,0,1,.1.2c.1.1.1.1.1.2l.3.3a1,1,0,0,1,.4.7.2.2,0,0,1,0,.3h-1l-.4-.2-.3-.3-.4-.5a.4.4,0,0,1-.1-.3c0-.1-.1-.3-.1-.4v-.7h0a.1.1,0,0,1-.1-.1v-.2h0a.9.9,0,0,0-.3-.7h-.1l-.3-.2-.3-.2-.2-.3v-.5h0v-.3a.9.9,0,0,0-.1-.5h-.1a.1.1,0,0,0-.1-.1H268v-.4h0a.4.4,0,0,1,.1-.3l.3-.4.3-.4h.8l.2-.4v-.4h0v-.2a.5.5,0,0,0-.2-.4v-.2h-.1l-.3-.6-.2-.2c0-.1,0-.1-.1-.2a.5.5,0,0,0-.2-.4l-.2-.3c0-.1-.1-.3-.1-.4s-.2-.2-.2-.3v-.3c-.1-.1-.1-.1-.1-.2h-.1c-.1-.1-.1-.3-.2-.4h0a.4.4,0,0,1,.1-.3c0-.1,0-.1.1-.2h.1c.1-.1,0-.2,0-.3a.5.5,0,0,0-.2-.4h-.3c0-.1-.1-.2-.1-.3s-.1-.2-.1-.4v-.3a.7.7,0,0,0-.3-.6h-.8a.1.1,0,0,0-.1-.1h-.3l-.3-.4h-.3l-.5-.6v-.2h0a.4.4,0,0,1-.1-.3c-.1-.1,0-.2,0-.3s-.1-.2-.2-.3-.3,0-.4-.1h-.3a.1.1,0,0,1-.1-.1h-.1v-.2L263,66h-.5l-.4-.2h-.6c-.1,0-.2-.2-.3-.3l-.4-.3-.2-.2-.2-.2h-.8l-.3.3-.2.2H258c-.1.1-.1.2-.3.1h-.2l-.2-.3-.3-.3-.2-.2c-.1-.2,0-.3.1-.5h0v-.2c.1-.1.2-.1.2-.2s.2-.2.3-.1h.1V63a.4.4,0,0,0-.1-.3,1,1,0,0,0-.5-.4l-.3-.3-.3-.2-.2-.3h-.3a1,1,0,0,0-.5-.4h-.5l-.5-.3h-.7c0-.1-.1-.1-.1-.2l-.2-.3-.2-.2h-.1l-.3-.2h-.2c-.1-.1-.2-.1-.2-.2h-.2a.2.2,0,0,0-.2-.2h-.3a.1.1,0,0,0-.1-.1.1.1,0,0,0-.1-.1l-.3-.3c0-.1-.1-.2-.2-.3s0-.2-.1-.2-.1-.5-.2-.7v-.2a.5.5,0,0,1-.1-.3v-.2h0v-.6a.4.4,0,0,0,.1-.3V55h0c0-.1,0-.1.1-.2s.1-.3.1-.5.1-.3.2-.4.1-.3.2-.3l.2-.3.2-.2c0-.1.1-.2.2-.3s.2-.2.2-.3l.2-.2.3-.4c0-.1.1-.2.1-.3a.3.3,0,0,1,.1-.2v-.2h.1v-.5c0-.1.1-.2.1-.4h.1c0-.1.1-.1.1-.2l.2-.2c0-.1.1-.2.1-.3s.1-.4.1-.6l.2-.2v-.2h.1l.2-.3v-.2c0-.1.1-.2.1-.3s-.1-.2-.1-.3l-.2-.5h-.1V46a.4.4,0,0,1-.1-.3v-.2c-.1,0,0-.1,0-.1h0V45h.2a.3.3,0,0,1,.1-.2c.1-.1.2-.3.3-.3l.2-.3.3-.5a.3.3,0,0,1,.1-.2c0-.1.1-.2.1-.3v-.5c-.1-.2-.1-.4-.2-.5s-.1-.2-.1-.3l-.2-.2-.5-.2-.5-.3c-.1-.1-.2-.1-.2-.2H253c-.1-.1-.1-.1-.1-.2h-.2c0-.1-.1-.1-.1-.2s-.2-.1-.2-.2h-1.6l-.5-.2h-1.8l-.3.4c-.1.1-.1.3-.2.4s-.2.2-.2.3-.2.1-.2.2-.1.1-.1.2h-.1l-.3.3h-1.3c-.1,0-.2-.2-.2-.3l-.2-.2a.6.6,0,0,0-.1-.4l-.2-.2c0-.1-.1-.1-.1-.2h-.2a995164323832.2,995164323832.2,0,0,1-.2-.2c-.1-.1-.1-.2-.2-.4v-.2h0v-.2a.1.1,0,0,0-.1-.1v-.3a.3.3,0,0,0,.1-.2h0V38c0-.1,0-.2-.1-.2a1.3,1.3,0,0,0-.1-.6v-.5h0v-.8a1.4,1.4,0,0,0-.2-.6v-.3c0-.1-.1-.2-.1-.3v-.2c-.1-.1,0-.2,0-.3a4.3,4.3,0,0,0-.2-1.1c0-.1,0-.1-.1-.2h0l-.2-.3c-.2-.1-.3-.3-.6-.3h-.2l-.3-.2-.4-.3-.3-.3h-.2v-.2h-.2c-.1-.1-.1-.1-.1-.2l-.3-.3h0a.3.3,0,0,1-.1-.2h-.1l-.3-.2-.5-.3-.7-.3-.3-.3-.3-.2c-.1-.2-.4-.3-.6-.5l-.2-.2-.2-.3-.5-.6c0-.1-.1-.1-.2-.2s0-.1-.1-.2a.1.1,0,0,0-.1-.1v-.2a.1.1,0,0,1-.1-.1c0-.1-.1-.1-.1-.2h-.3l-.3-.2h-.3c-.2,0-.3-.1-.4-.3h-.1a.4.4,0,0,1-.1-.3l-.3-.5-.2-.2h-.3l-.2-.2-.2-.2a.1.1,0,0,0-.1-.1h-.1l-.2-.2-.3-.3c-.1-.1-.1-.2-.2-.2a.1.1,0,0,0-.1-.1c0-.1,0-.1-.1-.1l-.2-.2h0a1.8,1.8,0,0,1-.5-.7c0-.1,0-.1-.1-.1h0a.4.4,0,0,1-.1-.3v-.2h0v-.2a4.3,4.3,0,0,1-.1-.5h-.1l-.2-.3-.2-.2L231,19l-.4-.3c-.1-.1-.1-.2-.2-.2s-.1-.2,0-.3V16.9a.4.4,0,0,0,.1-.3V16h0l-.2-.2-.2-.2h-.1a.2.2,0,0,1-.2-.2,1.8,1.8,0,0,1-.5-.7v-.2c0-.1-.1-.2-.1-.3s-.1-.2-.1-.3h-.1a5,5,0,0,1-.2-1.2Z" transform="translate(0 -0.4)" fill="#0be6af"/>
    <path d="M5.7,71.3v-17H0V52.8H13.3v1.4H7.6v17Zm11.9,0V52.8h1.9V61h9.6V52.8h2V71.3h-2V62.4H19.5v8.9Zm19.2,0V52.8H47.2v1.4H38.7V61h7.9v1.5H38.7v7.3h8.6v1.5Z" transform="translate(0 -0.4)" fill="#fff"/>
    <path d="M60.5,36.3h9V70.9h-9ZM76.4,70.9V36.3h8.8l11.7,20v-20h7.5V70.9H96.5L83.9,49.3V70.9Zm35-34.6H132V43H120.3v7.7h10.4v6.7H120.3V70.9h-8.9Zm26.4,0h9V64.2h12.5v6.7H137.8Zm39.7,28.3c3,0,5.2-1.6,5.2-6V36.3h8.1V57.8c0,8.9-5.2,13.8-13.8,13.8s-13.8-4.5-13.8-13.8V36.3h9V58.6c0,4.7,2.3,6,5.3,6Zm20-28.3h21.1V43H206.4v6.8h11v6.7h-11v7.7h12.4v6.7H197.5Zm27.7,34.6V36.3h8.9l11.6,20v-20h7.5V70.9h-7.8L232.8,49.3V70.9Zm60.7-1.8a18.4,18.4,0,0,1-9.7,2.4c-9.5,0-17.5-5.7-17.5-17.5s7.8-18.2,17.5-18.2a23.1,23.1,0,0,1,9.4,1.7l-2.2,7a13.6,13.6,0,0,0-6-1.4c-5.9,0-9.7,3.9-9.7,10.8s4,10.2,9.2,10.2a12,12,0,0,0,6.7-1.7Zm4.7-32.8h21.1V43H299.5v6.8h11v6.7h-11v7.7h12.4v6.7H290.6Zm27.8,0h14.2c6.2,0,11.3,3.6,11.3,10.9a10.1,10.1,0,0,1-6.4,9.5l8,14.2H336l-7.3-13h-1.4v13h-8.9Zm8.9,6.7v9.3h3.5c2.7,0,4.4-1.8,4.4-4.8s-1.7-4.5-4.3-4.5Z" transform="translate(0 -0.4)" fill="#fff"/>
    <path d="M362.3,54a3.5,3.5,0,0,0-2.6.8,2.9,2.9,0,0,0-.1,4.3,13.4,13.4,0,0,0,3.1,1.7l2,1a5.6,5.6,0,0,1,1.5,1,3.6,3.6,0,0,1,1.1,1.4,7.5,7.5,0,0,1,.3,2,5,5,0,0,1-1.6,4,6,6,0,0,1-4.3,1.4,9.8,9.8,0,0,1-5.5-1.4l.6-1.5a9.3,9.3,0,0,0,4.9,1.4,5.5,5.5,0,0,0,3-.9,3.9,3.9,0,0,0,.8-4.2,2.1,2.1,0,0,0-.8-1.1l-1.3-.8-1.9-.8a9.9,9.9,0,0,1-3.5-2.2,4.5,4.5,0,0,1,.4-6.4,6.1,6.1,0,0,1,4-1.2,9.7,9.7,0,0,1,4.7,1l-.5,1.5A8,8,0,0,0,362.3,54Zm10,17.3V52.8h10.4v1.4h-8.4V61h7.8v1.5h-7.8v7.3h8.6v1.5Zm15.9,0V52.8h5.9a5.5,5.5,0,0,1,4,1.4,4.9,4.9,0,0,1,1.4,3.8,4.8,4.8,0,0,1-4.1,5.1l5.1,8.2h-2.1l-5-8.1h-3.2v8.1Zm5.5-17h-3.5v7.6h3.5a3.5,3.5,0,0,0,3.9-3.1,1.1,1.1,0,0,0,0-.8,3.4,3.4,0,0,0-1-2.8,4.2,4.2,0,0,0-2.8-1Zm11.3,17V52.8h1.9V71.3Zm8,0V52.8h10.4v1.4H415V61h7.9v1.5H415v7.3h8.6v1.5ZM433.5,54a3.5,3.5,0,0,0-2.6.8,2.9,2.9,0,0,0-.1,4.3,11.7,11.7,0,0,0,3.1,1.7l2,1,1.5,1a4.9,4.9,0,0,1,1.1,1.4,7.5,7.5,0,0,1,.3,2,5,5,0,0,1-1.6,4,6.2,6.2,0,0,1-4.3,1.4,9.6,9.6,0,0,1-5.5-1.4l.6-1.5a9,9,0,0,0,4.8,1.4,5.1,5.1,0,0,0,3-.9,3.3,3.3,0,0,0,1.2-2.8,6.8,6.8,0,0,0-.2-1.4,2.2,2.2,0,0,0-.9-1,3.5,3.5,0,0,0-1.3-.8,11.6,11.6,0,0,0-1.9-.9,9.9,9.9,0,0,1-3.5-2.2,4.6,4.6,0,0,1,.4-6.4,6.1,6.1,0,0,1,4-1.2,9.7,9.7,0,0,1,4.7,1l-.6,1.5A7.7,7.7,0,0,0,433.5,54Z" transform="translate(0 -0.4)" fill="#fff"/>
  </g>
</svg>
