<svg xmlns="http://www.w3.org/2000/svg" viewBox="0 0 438.8 112">
  <title>us-reversed</title>
  <g>
    <path d="M237.1,94.9a5.8,5.8,0,0,1-2.3.2c-3.9-1.5-6.8.2-9.5,2.7s-2.7,2.4-4.4,2-.8,1.4-1.3,1.7c-2.1,1.2-2.7,3.3-3,5.2s.6,2.9,1,4.9l-4.7-1c-2.9-.7-4.3-2.8-4.8-5.7a3.7,3.7,0,0,0-.5-1.1c-1.2-2-2.3-4-3.5-5.9a15.2,15.2,0,0,0-3.2-3.5,3.5,3.5,0,0,0-5.1,1.5c-.7,1.4-1.5,1.7-3,.8a8.9,8.9,0,0,1-4.3-5.4c-.5-1.9-2.7-3.3-3.8-5s-4.5-2.4-7-2.6a1.1,1.1,0,0,0-1,.6c-.3,1.3-1.3,1.1-2.3,1a52.4,52.4,0,0,1-5.3-.8,31.3,31.3,0,0,1-5.7-1.8,47,47,0,0,1-8.9-5.2c-2.6-2.1-5.5-2.2-8.5-2.5-1.4-.1-2-.6-1.9-2s-1-3-2.3-4.2-2.4-2.4-3.7-3.4a19.1,19.1,0,0,0-2.8-1.5c-.5-.3-1.2-1-1.1-1.3.6-2.8-1.5-4.8-2-7.2s-.3-2.2-.4-3.3a32.5,32.5,0,0,0-.8-3.8c-.5-1.6-1.1-3.2-1.5-4.8a7.5,7.5,0,0,1-.7-3.3,7.9,7.9,0,0,0-.4-4.8c-.2-.4.3-1.3.5-1.9s1.5-3.4,1.6-5.1a15.3,15.3,0,0,1,1.9-7c2.7-5.3,5-10.8,4.7-17,0-1.2-.1-2.4-.2-4A19.2,19.2,0,0,0,140,2.2c2.7,1.2,3.7.5,3.4-2.6l1.8.3a235,235,0,0,0,42.3,7.8c11.2.9,22.4,1.3,33.6,1.8a7.5,7.5,0,0,0,2.9-.9V7.9l.7.9c.9,2,2.1,2.5,4.2,2.3a5.7,5.7,0,0,1,3.1,1c1.9,1,3.8.5,5.7.6l2.2.4-6.6,5.6.4.5,3.1-1.3c.5,1.7,1.5,1.6,2.6.7l4.5-3.1a3.1,3.1,0,0,1,1.9-.4L244.6,17l2.6,1.3,2.5.4.3-.2c2.8-1.7,5.3-1.5,7.7.8.4.3,1.1.3,1.7,1l-4.4.5a10.7,10.7,0,0,0-2.5.3,8.3,8.3,0,0,0-5.8,6.1l2.3-2.9a68.5,68.5,0,0,0-1.3,8.1,25.3,25.3,0,0,0,1.1,6.6c.5,1.5,1.7,1.6,2.7.1a6.2,6.2,0,0,0,.4-6.3c-1.2-2.3-.5-6.4,1-8.1a26.9,26.9,0,0,0,2-2.7c.3-.3.8-.8,1-.8s3.3.9,4.5,1.9,1,3.9.1,5.4a7.6,7.6,0,0,0-.8,1.1l.4.4.9-.7c.6-.4,1.2-1.3,1.7-1.2s1,1,1.3,1.7a4.9,4.9,0,0,1,.8,2.3,7.1,7.1,0,0,1-.6,2.5L263,38.3c1.3.1,3,.9,3.9.4a77.3,77.3,0,0,0,8.5-6.6c.4-.4.1-1.7.1-3.1l3.8-.8a8.2,8.2,0,0,0,2.6-.4c1.7-.7,2-2,1.1-3.7l1.5-2.7a4.9,4.9,0,0,1,3.5-2.6c2.4-.5,4.8-1.2,7.2-1.9s3.6-3.4,3.8-5.6a55.8,55.8,0,0,1,1-6.8l.5.3a7,7,0,0,1,2.5-.5,4,4,0,0,1,2.3,1c.4.3.5,1.1.7,1.7a8.7,8.7,0,0,0,3.6,5.3c1,.6,1.3,1.5.1,2.4a27,27,0,0,1-4,2.9c-.6.9-1,2-1.8,2.5s-2.2,2.8-2.2,4.5-.3,2.9,1.2,3.8l2.3,1.1-1.7,2.2-.4-.9-1.9.4c-.6,2.9-4.7,1.7-6,4.3l4.3-1.6.3.7-6,3.4c1.9,2.6-.3,4.8-.9,7.3l-1.8-.8c3.1,3.2.9,6.1-.5,9.1a2.5,2.5,0,0,1-.2-1.2c.4-1.5-.3-2.3-1.4-3.3s-1.1-2.6-1.8-3.8l1.4,5c.3,1.2.6,2.3,1,3.5a4.7,4.7,0,0,0,.5,1,30.5,30.5,0,0,1,3.1,4c.7,1.2-.8,3.2-2.5,3.4,0,.2.1.4.1.6s1,1.6.8,1.9a5.4,5.4,0,0,1-2,1c-.9.5-5.9,6.7-6.5,7.6a11.7,11.7,0,0,1-2.8,3.5c-3.1,2.6-4.5,7.2-2.9,10.8.9,2,2.3,3.8,3.3,5.8s1.2,3.2,2.2,4.5c2.6,3.3,2.6,6.9,2.1,10.7a1.1,1.1,0,0,1-.7.8,3,3,0,0,1-2.1-.1,20,20,0,0,1-3.1-2.7l-5-6.1c-1-1.4-.9-2.9-.8-4.6s-.9-1.7-1.6-2.5a27.3,27.3,0,0,0-2.5-2.3c-1-.9-2-1.6-3.2-.1a3.4,3.4,0,0,1-1.6,1c-.6.2-1.6.4-1.9.1-2.3-2.8-5-2.5-8-1.5l-1.5.5-.7-1L246,91.9v.5c2.2.1.7,1.3.7,2l.2.3c.6.6-1.3.7-1.7.5l-.4,1.1a17,17,0,0,1-4.5-.1,11.1,11.1,0,0,1-3-1.7Z" transform="translate(0 0.4)" fill="#0be6af"/>
    <path d="M5.7,71.3v-17H0V52.8H13.3v1.4H7.6v17Zm11.9,0V52.8h1.9V61h9.6V52.8h2V71.3h-2V62.4H19.5v8.9Zm19.2,0V52.8H47.2v1.4H38.7V61h7.9v1.5H38.7v7.3h8.6v1.5Z" transform="translate(0 0.4)" fill="#fff"/>
    <path d="M60.5,36.3h9V70.9h-9ZM76.4,70.9V36.3h8.8l11.7,20v-20h7.5V70.9H96.5L83.9,49.3V70.9Zm35-34.6H132V43H120.3v7.7h10.4v6.7H120.3V70.9h-8.9Zm26.4,0h9V64.2h12.5v6.7H137.8Zm39.7,28.3c3,0,5.2-1.6,5.2-6V36.3h8.1V57.8c0,8.9-5.2,13.8-13.8,13.8s-13.8-4.5-13.8-13.8V36.3h9V58.6c0,4.7,2.3,6,5.3,6Zm20-28.3h21.1V43H206.4v6.8h11v6.7h-11v7.7h12.4v6.7H197.5Zm27.7,34.6V36.3h8.9l11.6,20v-20h7.5V70.9h-7.8L232.8,49.3V70.9Zm60.7-1.8a18.4,18.4,0,0,1-9.7,2.4c-9.5,0-17.5-5.7-17.5-17.5s7.8-18.2,17.5-18.2a23.1,23.1,0,0,1,9.4,1.7l-2.2,7a13.6,13.6,0,0,0-6-1.4c-5.9,0-9.7,3.9-9.7,10.8s4,10.2,9.2,10.2a12,12,0,0,0,6.7-1.7Zm4.7-32.8h21.1V43H299.5v6.8h11v6.7h-11v7.7h12.4v6.7H290.6Zm27.8,0h14.2c6.2,0,11.3,3.6,11.3,10.9a10.1,10.1,0,0,1-6.4,9.5l8,14.2H336l-7.3-13h-1.4v13h-8.9Zm8.9,6.7v9.3h3.5c2.7,0,4.4-1.8,4.4-4.8s-1.7-4.5-4.3-4.5Z" transform="translate(0 0.4)" fill="#fff"/>
    <path d="M362.3,54a3.5,3.5,0,0,0-2.6.8,2.9,2.9,0,0,0-.1,4.3,13.4,13.4,0,0,0,3.1,1.7l2,1a5.6,5.6,0,0,1,1.5,1,3.6,3.6,0,0,1,1.1,1.4,7.5,7.5,0,0,1,.3,2,5,5,0,0,1-1.6,4,6,6,0,0,1-4.3,1.4,9.8,9.8,0,0,1-5.5-1.4l.6-1.5a9.3,9.3,0,0,0,4.9,1.4,5.5,5.5,0,0,0,3-.9,3.9,3.9,0,0,0,.8-4.2,2.1,2.1,0,0,0-.8-1.1l-1.3-.8-1.9-.8a9.9,9.9,0,0,1-3.5-2.2,4.5,4.5,0,0,1,.4-6.4,6.1,6.1,0,0,1,4-1.2,9.7,9.7,0,0,1,4.7,1l-.5,1.5A8,8,0,0,0,362.3,54Zm10,17.3V52.8h10.4v1.4h-8.4V61h7.8v1.5h-7.8v7.3h8.6v1.5Zm15.9,0V52.8h5.9a5.5,5.5,0,0,1,4,1.4,4.9,4.9,0,0,1,1.4,3.8,4.8,4.8,0,0,1-4.1,5.1l5.1,8.2h-2.1l-5-8.1h-3.2v8.1Zm5.5-17h-3.5v7.6h3.5a3.5,3.5,0,0,0,3.9-3.1,1.1,1.1,0,0,0,0-.8,3.4,3.4,0,0,0-1-2.8,4.2,4.2,0,0,0-2.8-1Zm11.3,17V52.8h1.9V71.3Zm8,0V52.8h10.4v1.4H415V61h7.9v1.5H415v7.3h8.6v1.5ZM433.5,54a3.5,3.5,0,0,0-2.6.8,2.9,2.9,0,0,0-.1,4.3,11.7,11.7,0,0,0,3.1,1.7l2,1,1.5,1a4.9,4.9,0,0,1,1.1,1.4,7.5,7.5,0,0,1,.3,2,5,5,0,0,1-1.6,4,6.2,6.2,0,0,1-4.3,1.4,9.6,9.6,0,0,1-5.5-1.4l.6-1.5a9,9,0,0,0,4.8,1.4,5.1,5.1,0,0,0,3-.9,3.3,3.3,0,0,0,1.2-2.8,6.8,6.8,0,0,0-.2-1.4,2.2,2.2,0,0,0-.9-1,3.5,3.5,0,0,0-1.3-.8,11.6,11.6,0,0,0-1.9-.9,9.9,9.9,0,0,1-3.5-2.2,4.6,4.6,0,0,1,.4-6.4,6.1,6.1,0,0,1,4-1.2,9.7,9.7,0,0,1,4.7,1l-.6,1.5A7.7,7.7,0,0,0,433.5,54Z" transform="translate(0 0.4)" fill="#fff"/>
  </g>
</svg>
